<svg viewBox="0 0 324 216" fill="none" xmlns="http://www.w3.org/2000/svg">
<path fill-rule="evenodd" clip-rule="evenodd" d="M108 216C127.672 216 146.115 210.741 162 201.552C129.719 182.878 108 147.975 108 108C108 68.0247 129.719 33.1222 162 14.4485C146.115 5.25929 127.672 0 108 0C48.3532 0 0 48.3532 0 108C0 167.647 48.3532 216 108 216Z" fill="currentColor"/>
<path d="M216 216C275.647 216 324 167.647 324 108C324 48.3532 275.647 0 216 0C196.328 0 177.885 5.25929 162 14.4485C194.281 33.1222 216 68.0247 216 108C216 147.975 194.281 182.878 162 201.552C177.885 210.741 196.328 216 216 216Z" fill="currentColor"/>
<g class="lines">
    <circle cx="108" cy="108" r="106" stroke-width="6"/>
    <circle cx="216" cy="108" r="106" stroke-width="6"/>
</g>
</svg>
